<svg width="140" height="33" viewBox="0 0 140 33" fill="none" xmlns="http://www.w3.org/2000/svg">
<g style="mix-blend-mode:overlay">
<path d="M3.85567 1.07303V24H0.323679V1.07303H3.85567ZM22.28 15.0461C22.28 15.6864 22.2387 16.2647 22.1561 16.7811H9.11251C9.21579 18.1443 9.72183 19.239 10.6306 20.0652C11.5395 20.8914 12.6548 21.3045 13.9767 21.3045C15.877 21.3045 17.2196 20.5093 18.0045 18.9189H21.8153C21.2989 20.4887 20.3591 21.7796 18.9959 22.7917C17.6533 23.7831 15.9803 24.2788 13.9767 24.2788C12.345 24.2788 10.8785 23.9174 9.57725 23.1945C8.29664 22.4509 7.28455 21.4181 6.54097 20.0962C5.81805 18.7536 5.45659 17.2045 5.45659 15.4489C5.45659 13.6932 5.80772 12.1544 6.50999 10.8325C7.23291 9.48991 8.23468 8.45717 9.51528 7.73425C10.8165 7.01132 12.3037 6.64986 13.9767 6.64986C15.5878 6.64986 17.0233 7.001 18.2833 7.70326C19.5432 8.40553 20.5244 9.39697 21.2266 10.6776C21.9289 11.9375 22.28 13.3937 22.28 15.0461ZM18.5931 13.9307C18.5725 12.6295 18.1077 11.5864 17.1989 10.8015C16.2901 10.0166 15.1644 9.62417 13.8218 9.62417C12.6032 9.62417 11.5601 10.0166 10.6926 10.8015C9.82511 11.5657 9.30873 12.6088 9.14349 13.9307H18.5931ZM30.775 6.64986C32.0969 6.64986 33.2639 6.91838 34.276 7.4554C35.3088 7.97178 36.1143 8.62241 36.6926 9.40729V6.9287H40.2556V24.2788C40.2556 25.8486 39.9251 27.2428 39.2642 28.4615C38.6032 29.7008 37.6428 30.6715 36.3828 31.3738C35.1435 32.0761 33.6564 32.4272 31.9214 32.4272C29.608 32.4272 27.6871 31.8799 26.1586 30.7851C24.6302 29.7111 23.7627 28.2446 23.5561 26.3856H27.0571C27.3256 27.2738 27.8936 27.9864 28.7612 28.5234C29.6493 29.0811 30.7027 29.36 31.9214 29.36C33.3465 29.36 34.4929 28.9262 35.3604 28.0587C36.2486 27.1912 36.6926 25.9312 36.6926 24.2788V21.4285C36.0937 22.234 35.2778 22.9156 34.245 23.4733C33.2329 24.0103 32.0763 24.2788 30.775 24.2788C29.2879 24.2788 27.9246 23.9071 26.6853 23.1635C25.4667 22.3992 24.4959 21.3458 23.773 20.0033C23.0707 18.64 22.7196 17.1013 22.7196 15.3869C22.7196 13.6725 23.0707 12.1544 23.773 10.8325C24.4959 9.51057 25.4667 8.48815 26.6853 7.76523C27.9246 7.02165 29.2879 6.64986 30.775 6.64986ZM36.6926 15.4489C36.6926 14.2715 36.4448 13.2491 35.9491 12.3816C35.474 11.5141 34.844 10.8531 34.0591 10.3987C33.2743 9.94432 32.4274 9.71712 31.5186 9.71712C30.6098 9.71712 29.7629 9.94432 28.978 10.3987C28.1931 10.8325 27.5528 11.4831 27.0571 12.3506C26.5821 13.1975 26.3445 14.2096 26.3445 15.3869C26.3445 16.5642 26.5821 17.597 27.0571 18.4851C27.5528 19.3733 28.1931 20.0549 28.978 20.53C29.7836 20.9844 30.6304 21.2116 31.5186 21.2116C32.4274 21.2116 33.2743 20.9844 34.0591 20.53C34.844 20.0756 35.474 19.4146 35.9491 18.5471C36.4448 17.6589 36.6926 16.6262 36.6926 15.4489ZM41.8585 15.3869C41.8585 13.6725 42.2096 12.1544 42.9119 10.8325C43.6348 9.51057 44.6056 8.48815 45.8242 7.76523C47.0635 7.02165 48.4267 6.64986 49.9139 6.64986C51.2565 6.64986 52.4235 6.91838 53.4149 7.4554C54.427 7.97178 55.2325 8.62241 55.8315 9.40729V6.9287H59.3945V24H55.8315V21.4594C55.2325 22.265 54.4167 22.9363 53.3839 23.4733C52.3512 24.0103 51.1738 24.2788 49.8519 24.2788C48.3854 24.2788 47.0429 23.9071 45.8242 23.1635C44.6056 22.3992 43.6348 21.3458 42.9119 20.0033C42.2096 18.64 41.8585 17.1013 41.8585 15.3869ZM55.8315 15.4489C55.8315 14.2715 55.5837 13.2491 55.088 12.3816C54.6129 11.5141 53.9829 10.8531 53.198 10.3987C52.4131 9.94432 51.5663 9.71712 50.6575 9.71712C49.7487 9.71712 48.9018 9.94432 48.1169 10.3987C47.332 10.8325 46.6917 11.4831 46.196 12.3506C45.7209 13.1975 45.4834 14.2096 45.4834 15.3869C45.4834 16.5642 45.7209 17.597 46.196 18.4851C46.6917 19.3733 47.332 20.0549 48.1169 20.53C48.9225 20.9844 49.7693 21.2116 50.6575 21.2116C51.5663 21.2116 52.4131 20.9844 53.198 20.53C53.9829 20.0756 54.6129 19.4146 55.088 18.5471C55.5837 17.6589 55.8315 16.6262 55.8315 15.4489ZM65.7067 1.07303V24H62.1747V1.07303H65.7067ZM70.2819 4.66699C69.6416 4.66699 69.1046 4.45011 68.6708 4.01636C68.2371 3.58261 68.0202 3.04558 68.0202 2.40528C68.0202 1.76497 68.2371 1.22794 68.6708 0.794191C69.1046 0.360437 69.6416 0.14356 70.2819 0.14356C70.9016 0.14356 71.4283 0.360437 71.862 0.794191C72.2958 1.22794 72.5126 1.76497 72.5126 2.40528C72.5126 3.04558 72.2958 3.58261 71.862 4.01636C71.4283 4.45011 70.9016 4.66699 70.2819 4.66699ZM72.0169 6.9287V24H68.4849V6.9287H72.0169ZM83.4083 6.64986C84.7508 6.64986 85.9488 6.9287 87.0022 7.48639C88.0763 8.04407 88.9128 8.87027 89.5118 9.96498C90.1108 11.0597 90.4103 12.3816 90.4103 13.9307V24H86.9093V14.4574C86.9093 12.929 86.5272 11.762 85.7629 10.9564C84.9987 10.1302 83.9556 9.71712 82.6337 9.71712C81.3118 9.71712 80.2584 10.1302 79.4735 10.9564C78.7093 11.762 78.3272 12.929 78.3272 14.4574V24H74.7952V6.9287H78.3272V8.88059C78.9055 8.17833 79.6388 7.63097 80.5269 7.23853C81.4357 6.84608 82.3962 6.64986 83.4083 6.64986ZM94.4818 24.2169C93.8415 24.2169 93.3045 24 92.8707 23.5662C92.437 23.1325 92.2201 22.5955 92.2201 21.9552C92.2201 21.3149 92.437 20.7778 92.8707 20.3441C93.3045 19.9103 93.8415 19.6934 94.4818 19.6934C95.1015 19.6934 95.6282 19.9103 96.0619 20.3441C96.4957 20.7778 96.7125 21.3149 96.7125 21.9552C96.7125 22.5955 96.4957 23.1325 96.0619 23.5662C95.6282 24 95.1015 24.2169 94.4818 24.2169ZM100.468 4.66699C99.8277 4.66699 99.2906 4.45011 98.8569 4.01636C98.4231 3.58261 98.2062 3.04558 98.2062 2.40528C98.2062 1.76497 98.4231 1.22794 98.8569 0.794191C99.2906 0.360437 99.8277 0.14356 100.468 0.14356C101.088 0.14356 101.614 0.360437 102.048 0.794191C102.482 1.22794 102.699 1.76497 102.699 2.40528C102.699 3.04558 102.482 3.58261 102.048 4.01636C101.614 4.45011 101.088 4.66699 100.468 4.66699ZM102.203 6.9287V24H98.671V6.9287H102.203ZM103.804 15.3869C103.804 13.6725 104.155 12.1544 104.857 10.8325C105.58 9.51057 106.551 8.48815 107.77 7.76523C109.009 7.02165 110.382 6.64986 111.89 6.64986C113.006 6.64986 114.1 6.89772 115.174 7.39344C116.269 7.8685 117.137 8.50881 117.777 9.31435V1.07303H121.34V24H117.777V21.4285C117.199 22.2547 116.393 22.9363 115.36 23.4733C114.348 24.0103 113.181 24.2788 111.859 24.2788C110.372 24.2788 109.009 23.9071 107.77 23.1635C106.551 22.3992 105.58 21.3458 104.857 20.0033C104.155 18.64 103.804 17.1013 103.804 15.3869ZM117.777 15.4489C117.777 14.2715 117.529 13.2491 117.033 12.3816C116.558 11.5141 115.928 10.8531 115.143 10.3987C114.359 9.94432 113.512 9.71712 112.603 9.71712C111.694 9.71712 110.847 9.94432 110.062 10.3987C109.277 10.8325 108.637 11.4831 108.141 12.3506C107.666 13.1975 107.429 14.2096 107.429 15.3869C107.429 16.5642 107.666 17.597 108.141 18.4851C108.637 19.3733 109.277 20.0549 110.062 20.53C110.868 20.9844 111.715 21.2116 112.603 21.2116C113.512 21.2116 114.359 20.9844 115.143 20.53C115.928 20.0756 116.558 19.4146 117.033 18.5471C117.529 17.6589 117.777 16.6262 117.777 15.4489ZM132.733 6.64986C134.076 6.64986 135.274 6.9287 136.327 7.48639C137.401 8.04407 138.238 8.87027 138.837 9.96498C139.436 11.0597 139.735 12.3816 139.735 13.9307V24H136.234V14.4574C136.234 12.929 135.852 11.762 135.088 10.9564C134.324 10.1302 133.281 9.71712 131.959 9.71712C130.637 9.71712 129.583 10.1302 128.798 10.9564C128.034 11.762 127.652 12.929 127.652 14.4574V24H124.12V6.9287H127.652V8.88059C128.23 8.17833 128.964 7.63097 129.852 7.23853C130.761 6.84608 131.721 6.64986 132.733 6.64986Z" fill="black"/>
</g>
</svg>
